<svg width="328" height="131" viewBox="0 0 328 131" fill="none" xmlns="http://www.w3.org/2000/svg">
<circle cx="164.5" cy="93.5" r="22.5" fill="#04272E"/>
<circle cx="162.2" cy="40.66" r="23.2" fill="white"/>
<path d="M11.9375 30H16.2812V36.25C18.0104 33.875 20 32.0938 22.25 30.9062C24.5 29.7188 27.0104 29.125 29.7812 29.125C34.6146 29.125 38.75 30.8646 42.1875 34.3438C45.625 37.8229 47.3438 42.0104 47.3438 46.9062C47.3438 51.9062 45.6354 56.1562 42.2188 59.6562C38.8229 63.1354 34.7188 64.875 29.9062 64.875C27.1979 64.875 24.7083 64.3125 22.4375 63.1875C20.1667 62.0625 18.1146 60.3854 16.2812 58.1562V76.4375H11.9375V30ZM29.4375 33.3438C25.6458 33.3438 22.4479 34.6667 19.8438 37.3125C17.2604 39.9583 15.9688 43.25 15.9688 47.1875C15.9688 49.7708 16.5417 52.0938 17.6875 54.1562C18.8542 56.2188 20.5104 57.8542 22.6562 59.0625C24.8229 60.2708 27.1042 60.875 29.5 60.875C31.8542 60.875 34.0625 60.2708 36.125 59.0625C38.2083 57.8333 39.8646 56.125 41.0938 53.9375C42.3229 51.75 42.9375 49.4583 42.9375 47.0625C42.9375 44.6458 42.3229 42.3542 41.0938 40.1875C39.8854 38.0208 38.25 36.3438 36.1875 35.1562C34.125 33.9479 31.875 33.3438 29.4375 33.3438ZM89.4375 30V64H85.125V58.1562C83.2917 60.3854 81.2292 62.0625 78.9375 63.1875C76.6667 64.3125 74.1771 64.875 71.4688 64.875C66.6562 64.875 62.5417 63.1354 59.125 59.6562C55.7292 56.1562 54.0312 51.9062 54.0312 46.9062C54.0312 42.0104 55.75 37.8229 59.1875 34.3438C62.625 30.8646 66.7604 29.125 71.5938 29.125C74.3854 29.125 76.9062 29.7188 79.1562 30.9062C81.4271 32.0938 83.4167 33.875 85.125 36.25V30H89.4375ZM71.9375 33.3438C69.5 33.3438 67.25 33.9479 65.1875 35.1562C63.125 36.3438 61.4792 38.0208 60.25 40.1875C59.0417 42.3542 58.4375 44.6458 58.4375 47.0625C58.4375 49.4583 59.0521 51.75 60.2812 53.9375C61.5104 56.125 63.1562 57.8333 65.2188 59.0625C67.3021 60.2708 69.5312 60.875 71.9062 60.875C74.3021 60.875 76.5729 60.2708 78.7188 59.0625C80.8646 57.8542 82.5104 56.2188 83.6562 54.1562C84.8229 52.0938 85.4062 49.7708 85.4062 47.1875C85.4062 43.25 84.1042 39.9583 81.5 37.3125C78.9167 34.6667 75.7292 33.3438 71.9375 33.3438ZM97.6562 30H102.125V34.9688C103.458 33.0104 104.865 31.5521 106.344 30.5938C107.823 29.6146 109.365 29.125 110.969 29.125C112.177 29.125 113.469 29.5104 114.844 30.2812L112.562 33.9688C111.646 33.5729 110.875 33.375 110.25 33.375C108.792 33.375 107.385 33.9792 106.031 35.1875C104.677 36.375 103.646 38.2292 102.938 40.75C102.396 42.6875 102.125 46.6042 102.125 52.5V64H97.6562V30ZM122.375 17.375H126.781V30H133.719V33.75H126.781V64H122.375V33.75H116.406V30H122.375V17.375ZM162.875 16.875C169.833 16.875 175.656 19.1979 180.344 23.8438C185.031 28.4896 187.375 34.2083 187.375 41C187.375 47.7292 185.031 53.4375 180.344 58.125C175.677 62.8125 169.979 65.1562 163.25 65.1562C156.438 65.1562 150.688 62.8229 146 58.1562C141.312 53.4896 138.969 47.8438 138.969 41.2188C138.969 36.8021 140.031 32.7083 142.156 28.9375C144.302 25.1667 147.219 22.2188 150.906 20.0938C154.594 17.9479 158.583 16.875 162.875 16.875ZM163.094 21.375C159.698 21.375 156.479 22.2604 153.438 24.0312C150.396 25.8021 148.021 28.1875 146.312 31.1875C144.604 34.1875 143.75 37.5312 143.75 41.2188C143.75 46.6771 145.635 51.2917 149.406 55.0625C153.198 58.8125 157.76 60.6875 163.094 60.6875C166.656 60.6875 169.948 59.8229 172.969 58.0938C176.01 56.3646 178.375 54 180.062 51C181.771 48 182.625 44.6667 182.625 41C182.625 37.3542 181.771 34.0625 180.062 31.125C178.375 28.1667 175.99 25.8021 172.906 24.0312C169.823 22.2604 166.552 21.375 163.094 21.375Z" fill="#04272E"/>
<path d="M163 69.575C169.958 69.575 175.781 71.8979 180.469 76.5438C185.156 81.1896 187.5 86.9083 187.5 93.7C187.5 100.429 185.156 106.138 180.469 110.825C175.802 115.513 170.104 117.856 163.375 117.856C156.562 117.856 150.812 115.523 146.125 110.856C141.438 106.19 139.094 100.544 139.094 93.9188C139.094 89.5021 140.156 85.4083 142.281 81.6375C144.427 77.8667 147.344 74.9188 151.031 72.7938C154.719 70.6479 158.708 69.575 163 69.575ZM163.219 74.075C159.823 74.075 156.604 74.9604 153.562 76.7313C150.521 78.5021 148.146 80.8875 146.438 83.8875C144.729 86.8875 143.875 90.2313 143.875 93.9188C143.875 99.3771 145.76 103.992 149.531 107.763C153.323 111.513 157.885 113.388 163.219 113.388C166.781 113.388 170.073 112.523 173.094 110.794C176.135 109.065 178.5 106.7 180.188 103.7C181.896 100.7 182.75 97.3667 182.75 93.7C182.75 90.0542 181.896 86.7625 180.188 83.825C178.5 80.8667 176.115 78.5021 173.031 76.7313C169.948 74.9604 166.677 74.075 163.219 74.075ZM210 69.575V73.8563C208.396 73.1688 207.021 72.825 205.875 72.825C205.021 72.825 204.312 73.0021 203.75 73.3563C203.188 73.6896 202.833 74.0854 202.688 74.5438C202.542 74.9813 202.469 76.1688 202.469 78.1063V82.7H209.562V86.45H202.438V116.7H198.062V86.45H193.594V82.7H198.062V77.3875C198.062 74.95 198.281 73.2104 198.719 72.1688C199.177 71.1271 199.938 70.2938 201 69.6688C202.083 69.0229 203.385 68.7 204.906 68.7C206.323 68.7 208.021 68.9917 210 69.575ZM230.312 69.575V73.8563C228.708 73.1688 227.333 72.825 226.188 72.825C225.333 72.825 224.625 73.0021 224.062 73.3563C223.5 73.6896 223.146 74.0854 223 74.5438C222.854 74.9813 222.781 76.1688 222.781 78.1063V82.7H229.875V86.45H222.75V116.7H218.375V86.45H213.906V82.7H218.375V77.3875C218.375 74.95 218.594 73.2104 219.031 72.1688C219.49 71.1271 220.25 70.2938 221.312 69.6688C222.396 69.0229 223.698 68.7 225.219 68.7C226.635 68.7 228.333 68.9917 230.312 69.575ZM237.969 68.7C238.969 68.7 239.823 69.0542 240.531 69.7625C241.24 70.4708 241.594 71.325 241.594 72.325C241.594 73.3042 241.24 74.1479 240.531 74.8563C239.823 75.5646 238.969 75.9188 237.969 75.9188C236.99 75.9188 236.146 75.5646 235.438 74.8563C234.729 74.1479 234.375 73.3042 234.375 72.325C234.375 71.325 234.729 70.4708 235.438 69.7625C236.146 69.0542 236.99 68.7 237.969 68.7ZM235.781 82.7H240.188V116.7H235.781V82.7ZM282.25 89.7625L278.781 91.9188C275.781 87.9396 271.688 85.95 266.5 85.95C262.354 85.95 258.906 87.2833 256.156 89.95C253.427 92.6167 252.062 95.8563 252.062 99.6688C252.062 102.148 252.688 104.481 253.938 106.669C255.208 108.856 256.938 110.554 259.125 111.763C261.333 112.971 263.802 113.575 266.531 113.575C271.531 113.575 275.615 111.585 278.781 107.606L282.25 109.888C280.625 112.325 278.438 114.221 275.688 115.575C272.958 116.908 269.844 117.575 266.344 117.575C260.969 117.575 256.51 115.867 252.969 112.45C249.427 109.033 247.656 104.877 247.656 99.9813C247.656 96.6896 248.479 93.6375 250.125 90.825C251.792 87.9917 254.073 85.7833 256.969 84.2C259.865 82.6167 263.104 81.825 266.688 81.825C268.938 81.825 271.104 82.1688 273.188 82.8563C275.292 83.5438 277.073 84.4396 278.531 85.5438C279.99 86.6479 281.229 88.0542 282.25 89.7625ZM319.312 105.419L323 107.356C321.792 109.731 320.396 111.648 318.812 113.106C317.229 114.565 315.448 115.679 313.469 116.45C311.49 117.2 309.25 117.575 306.75 117.575C301.208 117.575 296.875 115.763 293.75 112.138C290.625 108.492 289.062 104.377 289.062 99.7938C289.062 95.4813 290.385 91.6375 293.031 88.2625C296.385 83.9708 300.875 81.825 306.5 81.825C312.292 81.825 316.917 84.0229 320.375 88.4188C322.833 91.5229 324.083 95.3979 324.125 100.044H293.562C293.646 104.002 294.906 107.252 297.344 109.794C299.781 112.315 302.792 113.575 306.375 113.575C308.104 113.575 309.781 113.273 311.406 112.669C313.052 112.065 314.448 111.263 315.594 110.263C316.74 109.263 317.979 107.648 319.312 105.419ZM319.312 96.2625C318.729 93.9292 317.875 92.0646 316.75 90.6688C315.646 89.2729 314.177 88.1479 312.344 87.2938C310.51 86.4396 308.583 86.0125 306.562 86.0125C303.229 86.0125 300.365 87.0854 297.969 89.2313C296.219 90.7938 294.896 93.1375 294 96.2625H319.312Z" fill="white"/>
</svg>
