<svg width="321" height="131" viewBox="0 0 321 131" fill="none" xmlns="http://www.w3.org/2000/svg">
<path d="M4.9375 30H9.28125V36.25C11.0104 33.875 13 32.0938 15.25 30.9062C17.5 29.7188 20.0104 29.125 22.7812 29.125C27.6146 29.125 31.75 30.8646 35.1875 34.3438C38.625 37.8229 40.3438 42.0104 40.3438 46.9062C40.3438 51.9062 38.6354 56.1562 35.2188 59.6562C31.8229 63.1354 27.7188 64.875 22.9062 64.875C20.1979 64.875 17.7083 64.3125 15.4375 63.1875C13.1667 62.0625 11.1146 60.3854 9.28125 58.1562V76.4375H4.9375V30ZM22.4375 33.3438C18.6458 33.3438 15.4479 34.6667 12.8438 37.3125C10.2604 39.9583 8.96875 43.25 8.96875 47.1875C8.96875 49.7708 9.54167 52.0938 10.6875 54.1562C11.8542 56.2188 13.5104 57.8542 15.6562 59.0625C17.8229 60.2708 20.1042 60.875 22.5 60.875C24.8542 60.875 27.0625 60.2708 29.125 59.0625C31.2083 57.8333 32.8646 56.125 34.0938 53.9375C35.3229 51.75 35.9375 49.4583 35.9375 47.0625C35.9375 44.6458 35.3229 42.3542 34.0938 40.1875C32.8854 38.0208 31.25 36.3438 29.1875 35.1562C27.125 33.9479 24.875 33.3438 22.4375 33.3438ZM82.4375 30V64H78.125V58.1562C76.2917 60.3854 74.2292 62.0625 71.9375 63.1875C69.6667 64.3125 67.1771 64.875 64.4688 64.875C59.6562 64.875 55.5417 63.1354 52.125 59.6562C48.7292 56.1562 47.0312 51.9062 47.0312 46.9062C47.0312 42.0104 48.75 37.8229 52.1875 34.3438C55.625 30.8646 59.7604 29.125 64.5938 29.125C67.3854 29.125 69.9062 29.7188 72.1562 30.9062C74.4271 32.0938 76.4167 33.875 78.125 36.25V30H82.4375ZM64.9375 33.3438C62.5 33.3438 60.25 33.9479 58.1875 35.1562C56.125 36.3438 54.4792 38.0208 53.25 40.1875C52.0417 42.3542 51.4375 44.6458 51.4375 47.0625C51.4375 49.4583 52.0521 51.75 53.2812 53.9375C54.5104 56.125 56.1562 57.8333 58.2188 59.0625C60.3021 60.2708 62.5312 60.875 64.9062 60.875C67.3021 60.875 69.5729 60.2708 71.7188 59.0625C73.8646 57.8542 75.5104 56.2188 76.6562 54.1562C77.8229 52.0938 78.4062 49.7708 78.4062 47.1875C78.4062 43.25 77.1042 39.9583 74.5 37.3125C71.9167 34.6667 68.7292 33.3438 64.9375 33.3438ZM90.6562 30H95.125V34.9688C96.4583 33.0104 97.8646 31.5521 99.3438 30.5938C100.823 29.6146 102.365 29.125 103.969 29.125C105.177 29.125 106.469 29.5104 107.844 30.2812L105.562 33.9688C104.646 33.5729 103.875 33.375 103.25 33.375C101.792 33.375 100.385 33.9792 99.0312 35.1875C97.6771 36.375 96.6458 38.2292 95.9375 40.75C95.3958 42.6875 95.125 46.6042 95.125 52.5V64H90.6562V30ZM115.375 17.375H119.781V30H126.719V33.75H119.781V64H115.375V33.75H109.406V30H115.375V17.375ZM155.875 16.875C162.833 16.875 168.656 19.1979 173.344 23.8438C178.031 28.4896 180.375 34.2083 180.375 41C180.375 47.7292 178.031 53.4375 173.344 58.125C168.677 62.8125 162.979 65.1562 156.25 65.1562C149.438 65.1562 143.688 62.8229 139 58.1562C134.312 53.4896 131.969 47.8438 131.969 41.2188C131.969 36.8021 133.031 32.7083 135.156 28.9375C137.302 25.1667 140.219 22.2188 143.906 20.0938C147.594 17.9479 151.583 16.875 155.875 16.875ZM156.094 21.375C152.698 21.375 149.479 22.2604 146.438 24.0312C143.396 25.8021 141.021 28.1875 139.312 31.1875C137.604 34.1875 136.75 37.5312 136.75 41.2188C136.75 46.6771 138.635 51.2917 142.406 55.0625C146.198 58.8125 150.76 60.6875 156.094 60.6875C159.656 60.6875 162.948 59.8229 165.969 58.0938C169.01 56.3646 171.375 54 173.062 51C174.771 48 175.625 44.6667 175.625 41C175.625 37.3542 174.771 34.0625 173.062 31.125C171.375 28.1667 168.99 25.8021 165.906 24.0312C162.823 22.2604 159.552 21.375 156.094 21.375Z" fill="white"/>
<path d="M155.87 69.575C162.828 69.575 168.651 71.8979 173.339 76.5438C178.026 81.1896 180.37 86.9083 180.37 93.7C180.37 100.429 178.026 106.138 173.339 110.825C168.672 115.513 162.974 117.856 156.245 117.856C149.433 117.856 143.683 115.523 138.995 110.856C134.308 106.19 131.964 100.544 131.964 93.9188C131.964 89.5021 133.026 85.4083 135.151 81.6375C137.297 77.8667 140.214 74.9188 143.901 72.7938C147.589 70.6479 151.578 69.575 155.87 69.575ZM156.089 74.075C152.693 74.075 149.474 74.9604 146.433 76.7313C143.391 78.5021 141.016 80.8875 139.308 83.8875C137.599 86.8875 136.745 90.2313 136.745 93.9188C136.745 99.3771 138.631 103.992 142.401 107.763C146.193 111.513 150.756 113.388 156.089 113.388C159.651 113.388 162.943 112.523 165.964 110.794C169.006 109.065 171.37 106.7 173.058 103.7C174.766 100.7 175.62 97.3667 175.62 93.7C175.62 90.0542 174.766 86.7625 173.058 83.825C171.37 80.8667 168.985 78.5021 165.901 76.7313C162.818 74.9604 159.547 74.075 156.089 74.075ZM202.87 69.575V73.8563C201.266 73.1688 199.891 72.825 198.745 72.825C197.891 72.825 197.183 73.0021 196.62 73.3563C196.058 73.6896 195.703 74.0854 195.558 74.5438C195.412 74.9813 195.339 76.1688 195.339 78.1063V82.7H202.433V86.45H195.308V116.7H190.933V86.45H186.464V82.7H190.933V77.3875C190.933 74.95 191.151 73.2104 191.589 72.1688C192.047 71.1271 192.808 70.2938 193.87 69.6688C194.953 69.0229 196.256 68.7 197.776 68.7C199.193 68.7 200.891 68.9917 202.87 69.575ZM223.183 69.575V73.8563C221.578 73.1688 220.203 72.825 219.058 72.825C218.203 72.825 217.495 73.0021 216.933 73.3563C216.37 73.6896 216.016 74.0854 215.87 74.5438C215.724 74.9813 215.651 76.1688 215.651 78.1063V82.7H222.745V86.45H215.62V116.7H211.245V86.45H206.776V82.7H211.245V77.3875C211.245 74.95 211.464 73.2104 211.901 72.1688C212.36 71.1271 213.12 70.2938 214.183 69.6688C215.266 69.0229 216.568 68.7 218.089 68.7C219.506 68.7 221.203 68.9917 223.183 69.575ZM230.839 68.7C231.839 68.7 232.693 69.0542 233.401 69.7625C234.11 70.4708 234.464 71.325 234.464 72.325C234.464 73.3042 234.11 74.1479 233.401 74.8563C232.693 75.5646 231.839 75.9188 230.839 75.9188C229.86 75.9188 229.016 75.5646 228.308 74.8563C227.599 74.1479 227.245 73.3042 227.245 72.325C227.245 71.325 227.599 70.4708 228.308 69.7625C229.016 69.0542 229.86 68.7 230.839 68.7ZM228.651 82.7H233.058V116.7H228.651V82.7ZM275.12 89.7625L271.651 91.9188C268.651 87.9396 264.558 85.95 259.37 85.95C255.224 85.95 251.776 87.2833 249.026 89.95C246.297 92.6167 244.933 95.8563 244.933 99.6688C244.933 102.148 245.558 104.481 246.808 106.669C248.078 108.856 249.808 110.554 251.995 111.763C254.203 112.971 256.672 113.575 259.401 113.575C264.401 113.575 268.485 111.585 271.651 107.606L275.12 109.888C273.495 112.325 271.308 114.221 268.558 115.575C265.828 116.908 262.714 117.575 259.214 117.575C253.839 117.575 249.381 115.867 245.839 112.45C242.297 109.033 240.526 104.877 240.526 99.9813C240.526 96.6896 241.349 93.6375 242.995 90.825C244.662 87.9917 246.943 85.7833 249.839 84.2C252.735 82.6167 255.974 81.825 259.558 81.825C261.808 81.825 263.974 82.1688 266.058 82.8563C268.162 83.5438 269.943 84.4396 271.401 85.5438C272.86 86.6479 274.099 88.0542 275.12 89.7625ZM312.183 105.419L315.87 107.356C314.662 109.731 313.266 111.648 311.683 113.106C310.099 114.565 308.318 115.679 306.339 116.45C304.36 117.2 302.12 117.575 299.62 117.575C294.078 117.575 289.745 115.763 286.62 112.138C283.495 108.492 281.933 104.377 281.933 99.7938C281.933 95.4813 283.256 91.6375 285.901 88.2625C289.256 83.9708 293.745 81.825 299.37 81.825C305.162 81.825 309.787 84.0229 313.245 88.4188C315.703 91.5229 316.953 95.3979 316.995 100.044H286.433C286.516 104.002 287.776 107.252 290.214 109.794C292.651 112.315 295.662 113.575 299.245 113.575C300.974 113.575 302.651 113.273 304.276 112.669C305.922 112.065 307.318 111.263 308.464 110.263C309.61 109.263 310.849 107.648 312.183 105.419ZM312.183 96.2625C311.599 93.9292 310.745 92.0646 309.62 90.6688C308.516 89.2729 307.047 88.1479 305.214 87.2938C303.381 86.4396 301.453 86.0125 299.433 86.0125C296.099 86.0125 293.235 87.0854 290.839 89.2313C289.089 90.7938 287.766 93.1375 286.87 96.2625H312.183Z" fill="white"/>
</svg>
